<svg width="16" height="16" viewBox="0 0 16 16" fill="none" xmlns="http://www.w3.org/2000/svg">
<g id="fxemoji:loudspeaker" clip-path="url(#clip0_3484_3067)">
<path id="Vector" d="M12.2428 3.62471L14.5897 1.30018C14.6894 1.20149 14.8542 1.21771 14.9327 1.33393L15.4741 2.13546C15.5486 2.24586 15.5109 2.39655 15.393 2.45871L12.5047 3.98171C12.4559 4.00743 12.3993 4.01423 12.3458 4.00082C12.2924 3.98741 12.2457 3.95472 12.2148 3.90902C12.1856 3.86581 12.1724 3.81374 12.1775 3.76183C12.1826 3.70991 12.2057 3.66141 12.2428 3.62471ZM12.6309 5.62093C12.6397 5.66392 12.664 5.70216 12.6993 5.72829C12.7346 5.75443 12.7782 5.76661 12.8219 5.76252L15.4089 5.52102C15.4338 5.5187 15.4579 5.51115 15.4797 5.49887C15.5015 5.48659 15.5205 5.46986 15.5354 5.44976C15.5503 5.42966 15.5608 5.40665 15.5662 5.38222C15.5716 5.35779 15.5718 5.3325 15.5668 5.30799L15.4124 4.55396C15.3901 4.44465 15.2738 4.38258 15.1705 4.42486L12.7379 5.42036C12.6995 5.43609 12.6678 5.46473 12.6483 5.50135C12.6287 5.53797 12.6226 5.58026 12.6309 5.62093ZM10.6994 2.8758C10.736 2.89998 10.7802 2.90979 10.8236 2.90334C10.867 2.89689 10.9065 2.87464 10.9345 2.84086L12.593 0.840865C12.609 0.821604 12.6207 0.799196 12.6274 0.775099C12.6342 0.751003 12.6358 0.725759 12.6321 0.701012C12.6284 0.676265 12.6196 0.65257 12.6061 0.631471C12.5927 0.610371 12.5749 0.592341 12.5541 0.578553L11.9118 0.154522C11.8186 0.0930528 11.6926 0.131365 11.6494 0.234303L10.6332 2.65833C10.6172 2.69661 10.615 2.73928 10.6271 2.77899C10.6392 2.8187 10.6647 2.85294 10.6994 2.8758Z" fill="#454545"/>
<path id="Vector_2" d="M6.82509 14.9946L6.32546 15.2868C5.91934 15.5243 5.39759 15.3876 5.16009 14.9815L3.8354 12.7163C3.5979 12.3102 3.73459 11.7884 4.14071 11.5509L4.64034 11.2587C5.04646 11.0212 5.56821 11.1579 5.80571 11.5641L7.1304 13.8293C7.36793 14.2354 7.23121 14.7571 6.82509 14.9946Z" fill="#FF7269"/>
<path id="Vector_3" d="M3.76259 12.7717L8.60355 10.1361L5.29424 4.95459L0.918276 8.20562C0.890058 8.22365 -0.292692 9.30584 1.00621 11.3396C2.30512 13.3734 3.76259 12.7717 3.76259 12.7717Z" fill="#6D5D36"/>
<path id="Vector_4" d="M11.3292 4.75705C12.7772 7.02417 13.6545 9.48024 13.0487 9.86711C12.4429 10.254 10.5835 8.42523 9.13555 6.15808C7.68758 3.89092 6.81036 1.43492 7.41611 1.04802C8.02186 0.661109 9.88127 2.48989 11.3292 4.75705Z" fill="#C6B68E"/>
<path id="Vector_5" d="M10.6473 7.90329C11.1491 7.58275 11.0054 6.46087 10.3262 5.39749C9.64696 4.33411 8.68954 3.73191 8.18771 4.05244C7.68587 4.37297 7.82965 5.49485 8.50885 6.55823C9.18805 7.62162 10.1455 8.22382 10.6473 7.90329Z" fill="#454545"/>
<path id="Vector_6" d="M13.0222 9.88407C12.4931 10.222 10.6958 8.35357 9.24788 6.08642C7.79991 3.81926 6.86054 1.40291 7.38966 1.06498C7.42013 1.04551 7.45432 1.03266 7.49166 1.02557C7.24204 1.01985 6.99747 1.15004 6.85276 1.42679C6.21501 2.64641 4.58741 5.35235 4.58741 5.35235C4.58741 5.35235 3.77975 6.43985 5.19954 8.66282C6.61932 10.8858 7.99004 10.6076 7.99004 10.6076C7.99004 10.6076 11.1039 10.2895 12.472 10.2242C12.7959 10.2087 13.0215 10.0289 13.1153 9.78623C13.0904 9.82717 13.0596 9.8602 13.0222 9.88407Z" fill="#FF7269"/>
<path id="Vector_7" d="M1.65276 9.63042C1.57876 9.63051 1.50593 9.61193 1.44102 9.5764C1.37611 9.54086 1.32121 9.48953 1.28142 9.42714C1.15057 9.22226 1.21057 8.95014 1.41545 8.81929L3.22517 7.66348C3.43001 7.53267 3.70217 7.59264 3.83301 7.79751C3.96385 8.00239 3.90385 8.27451 3.69898 8.40536L1.88926 9.56117C1.81868 9.60641 1.7366 9.63044 1.65276 9.63042Z" fill="#FF7269"/>
</g>
<defs>
<clipPath id="clip0_3484_3067">
<rect width="16" height="16" fill="white"/>
</clipPath>
</defs>
</svg>
