<svg width="24" height="24" viewBox="0 0 24 24" fill="none" xmlns="http://www.w3.org/2000/svg">
<path d="M18 5.33333H16V4H14.6667V5.33333H9.33333V4H8V5.33333H6C5.46957 5.33333 4.96086 5.54405 4.58579 5.91912C4.21071 6.29419 4 6.8029 4 7.33333V20H20V7.33333C20 6.8029 19.7893 6.29419 19.4142 5.91912C19.0391 5.54405 18.5304 5.33333 18 5.33333ZM5.33333 7.33333C5.33333 7.15652 5.40357 6.98695 5.5286 6.86193C5.65362 6.7369 5.82319 6.66667 6 6.66667H18C18.1768 6.66667 18.3464 6.7369 18.4714 6.86193C18.5964 6.98695 18.6667 7.15652 18.6667 7.33333V9.33333H5.33333V7.33333ZM5.33333 18.6667V10.6667H18.6667V18.6667H5.33333Z" fill="#374957"/>
<path d="M15.3333 12.6666H14V14H15.3333V12.6666Z" fill="#374957"/>
<path d="M12.6666 12.6666H11.3333V14H12.6666V12.6666Z" fill="#374957"/>
<path d="M10 12.6666H8.66669V14H10V12.6666Z" fill="#374957"/>
<path d="M15.3333 15.3334H14V16.6667H15.3333V15.3334Z" fill="#374957"/>
<path d="M12.6666 15.3334H11.3333V16.6667H12.6666V15.3334Z" fill="#374957"/>
<path d="M10 15.3334H8.66669V16.6667H10V15.3334Z" fill="#374957"/>
</svg>
