<svg width="24" height="24" viewBox="0 0 24 24" fill="none" xmlns="http://www.w3.org/2000/svg">
<path d="M18 6.66667H16.328L14.2707 4H9.72867L7.672 6.66667H6C5.46957 6.66667 4.96086 6.87738 4.58579 7.25245C4.21071 7.62753 4 8.13623 4 8.66667V20H20V8.66667C20 8.13623 19.7893 7.62753 19.4142 7.25245C19.0391 6.87738 18.5304 6.66667 18 6.66667ZM10.3847 5.33333H13.616L14.644 6.66667H9.356L10.3847 5.33333ZM18.6667 18.6667H5.33333V8.66667C5.33333 8.48986 5.40357 8.32029 5.5286 8.19526C5.65362 8.07024 5.82319 8 6 8H18C18.1768 8 18.3464 8.07024 18.4714 8.19526C18.5964 8.32029 18.6667 8.48986 18.6667 8.66667V18.6667Z" fill="#374957"/>
<path d="M12 9.33337C11.2089 9.33337 10.4355 9.56797 9.77772 10.0075C9.11992 10.447 8.60723 11.0717 8.30448 11.8026C8.00173 12.5335 7.92252 13.3378 8.07686 14.1137C8.2312 14.8897 8.61216 15.6024 9.17157 16.1618C9.73098 16.7212 10.4437 17.1022 11.2196 17.2565C11.9956 17.4109 12.7998 17.3316 13.5307 17.0289C14.2616 16.7261 14.8864 16.2135 15.3259 15.5557C15.7654 14.8979 16 14.1245 16 13.3334C15.9989 12.2728 15.5772 11.256 14.8273 10.5061C14.0773 9.7562 13.0605 9.33443 12 9.33337ZM12 16C11.4726 16 10.957 15.8436 10.5185 15.5506C10.08 15.2576 9.73816 14.8411 9.53632 14.3539C9.33449 13.8666 9.28168 13.3304 9.38457 12.8131C9.48747 12.2959 9.74144 11.8207 10.1144 11.4478C10.4873 11.0748 10.9625 10.8208 11.4798 10.7179C11.997 10.6151 12.5332 10.6679 13.0205 10.8697C13.5078 11.0715 13.9242 11.4133 14.2173 11.8519C14.5103 12.2904 14.6667 12.806 14.6667 13.3334C14.6667 14.0406 14.3857 14.7189 13.8856 15.219C13.3855 15.7191 12.7072 16 12 16Z" fill="#374957"/>
</svg>
