<svg width="106" height="106" viewBox="0 0 106 106" fill="none" xmlns="http://www.w3.org/2000/svg">
<path d="M17.9617 37.6989L23.797 95.5113C24.1203 97.9546 35.9181 105.989 53 106C70.0925 105.989 81.8903 97.9546 82.2083 95.5113L88.0489 37.6989C79.1237 42.6915 65.7836 45.05 53 45.05C40.227 45.05 26.8816 42.6915 17.9617 37.6989ZM69.7904 8.003L65.2377 2.9627C63.4781 0.4558 61.5701 0 57.8548 0H48.1505C44.4405 0 42.5272 0.4558 40.7729 2.9627L36.2202 8.003C22.5992 10.3827 12.72 16.695 12.72 21.3537V22.2547C12.72 30.4538 30.7559 37.1 53 37.1C75.2494 37.1 93.2853 30.4538 93.2853 22.2547V21.3537C93.2853 16.695 83.4114 10.3827 69.7904 8.003ZM63.971 23.002L58.3 15.9H47.7L42.0396 23.002H33.0296C33.0296 23.002 42.8982 11.2307 44.2179 9.6354C45.2249 8.4164 46.2531 7.95 47.5887 7.95H58.4166C59.7575 7.95 60.7857 8.4164 61.7927 9.6354C63.1071 11.2307 72.981 23.002 72.981 23.002H63.971Z" fill="#7259F7" fill-opacity="0.5"/>
</svg>
