<svg width="118" height="118" viewBox="0 0 118 118" fill="none" xmlns="http://www.w3.org/2000/svg">
<g clip-path="url(#clip0_1020_1650)">
<path d="M103.25 56.8121V49.1372C103.25 37.4014 98.588 26.1462 90.2895 17.8477C81.991 9.54925 70.7358 4.88721 59 4.88721C47.2642 4.88721 36.009 9.54925 27.7105 17.8477C19.412 26.1462 14.75 37.4014 14.75 49.1372V56.8121C10.3427 58.9395 6.62252 62.2635 4.01433 66.4044C1.40614 70.5454 0.0150705 75.3363 0 80.2302L0 82.0199C0.00780798 88.952 2.76506 95.5981 7.66685 100.5C12.5686 105.402 19.2147 108.159 26.1468 108.167H27.0417C30.3016 108.167 33.4281 106.872 35.7332 104.567C38.0383 102.261 39.3333 99.135 39.3333 95.875V66.375C39.3328 63.5423 38.3538 60.7966 36.562 58.6026C34.7702 56.4085 32.2755 54.9007 29.5 54.3341V49.1372C29.5 41.3133 32.608 33.8099 38.1404 28.2776C43.6727 22.7452 51.1761 19.6372 59 19.6372C66.8239 19.6372 74.3273 22.7452 79.8596 28.2776C85.392 33.8099 88.5 41.3133 88.5 49.1372V54.3341C85.7245 54.9007 83.2298 56.4085 81.438 58.6026C79.6462 60.7966 78.6672 63.5423 78.6667 66.375V93.4167H71.2917C69.3357 93.4167 67.4598 94.1937 66.0768 95.5768C64.6937 96.9599 63.9167 98.8357 63.9167 100.792C63.9167 102.748 64.6937 104.624 66.0768 106.007C67.4598 107.39 69.3357 108.167 71.2917 108.167H91.8532C98.7853 108.159 105.431 105.402 110.333 100.5C115.235 95.5981 117.992 88.952 118 82.0199V80.2302C117.985 75.3363 116.594 70.5454 113.986 66.4044C111.377 62.2635 107.657 58.9395 103.25 56.8121ZM24.5833 93.3085C21.8556 92.9276 19.3576 91.573 17.5503 89.4947C15.7431 87.4163 14.7485 84.7544 14.75 82.0002V80.2105C14.7485 77.4563 15.7431 74.7944 17.5503 72.7161C19.3576 70.6377 21.8556 69.2831 24.5833 68.9022V93.3085ZM103.25 82.0002C103.252 84.7544 102.257 87.4163 100.45 89.4947C98.6424 91.573 96.1444 92.9276 93.4167 93.3085V68.9415C96.1444 69.3225 98.6424 70.6771 100.45 72.7554C102.257 74.8338 103.252 77.4956 103.25 80.2499V82.0002Z" fill="#7259F7"/>
</g>
<defs>
<clipPath id="clip0_1020_1650">
<rect width="118" height="118" fill="white"/>
</clipPath>
</defs>
</svg>
