<svg width="24" height="24" viewBox="0 0 24 24" fill="none" xmlns="http://www.w3.org/2000/svg">
<g clip-path="url(#clip0_2202_134)">
<path d="M5.29625 17C6.094 17 6.7407 16.3284 6.7407 15.5C6.7407 14.6716 6.094 14 5.29625 14C4.49851 14 3.85181 14.6716 3.85181 15.5C3.85181 16.3284 4.49851 17 5.29625 17Z" fill="white"/>
<path d="M18.2963 3H4.81481C2.11852 3 0 5.2 0 8V16C0 18.8 2.11852 21 4.81481 21H18.2963C20.9926 21 23.1111 18.8 23.1111 16V8C23.1111 5.2 20.9926 3 18.2963 3ZM4.81481 5H18.2963C19.9333 5 21.1852 6.3 21.1852 8H1.92593C1.92593 6.3 3.17778 5 4.81481 5ZM18.2963 19H4.81481C3.17778 19 1.92593 17.7 1.92593 16V10H21.1852V16C21.1852 17.7 19.9333 19 18.2963 19Z" fill="white"/>
</g>
<defs>
<clipPath id="clip0_2202_134">
<rect width="23.1111" height="24" fill="white"/>
</clipPath>
</defs>
</svg>
