<svg width="24" height="24" viewBox="0 0 24 24" fill="none" xmlns="http://www.w3.org/2000/svg">
<g clip-path="url(#clip0_345_995)">
<path d="M19.333 14.667C18.5764 14.6672 17.8312 14.8514 17.1616 15.2039C16.4921 15.5563 15.9184 16.0663 15.49 16.69L8.98998 13.755C9.44582 12.6356 9.4494 11.3829 8.99998 10.261L15.494 7.31196C16.1272 8.23071 17.0688 8.89204 18.1479 9.17597C19.227 9.4599 20.3722 9.34763 21.3756 8.85953C22.379 8.37143 23.1742 7.53982 23.617 6.51559C24.0598 5.49135 24.1207 4.34234 23.7889 3.277C23.457 2.21166 22.7542 1.30057 21.8081 0.709022C20.862 0.117471 19.7351 -0.115352 18.632 0.0527894C17.5289 0.220931 16.5226 0.7789 15.7957 1.62547C15.0688 2.47204 14.6694 3.55113 14.67 4.66696C14.67 4.93238 14.6924 5.19732 14.737 5.45896L7.84598 8.58696C7.18167 7.9674 6.35099 7.55516 5.45581 7.40082C4.56062 7.24648 3.63986 7.35674 2.80642 7.71807C1.97299 8.07941 1.26313 8.67612 0.763882 9.43502C0.264638 10.1939 -0.00228106 11.082 -0.00414061 11.9904C-0.00600016 12.8988 0.25728 13.788 0.753413 14.5489C1.24955 15.3099 1.95696 15.9095 2.78891 16.2742C3.62085 16.639 4.54116 16.753 5.43697 16.6023C6.33278 16.4516 7.16514 16.0428 7.83198 15.426L14.732 18.543C14.5698 19.486 14.7014 20.4561 15.109 21.3219C15.5166 22.1876 16.1805 22.9072 17.0107 23.383C17.8409 23.8589 18.7973 24.068 19.7503 23.9821C20.7033 23.8963 21.6069 23.5195 22.3387 22.9029C23.0705 22.2863 23.595 21.4597 23.8413 20.535C24.0875 19.6104 24.0436 18.6324 23.7155 17.7335C23.3873 16.8346 22.7908 16.0583 22.0067 15.5098C21.2226 14.9613 20.2889 14.6671 19.332 14.667H19.333Z" fill="#F8F7FE"/>
</g>
<defs>
<clipPath id="clip0_345_995">
<rect width="24" height="24" fill="white"/>
</clipPath>
</defs>
</svg>
