<svg width="240" height="240" viewBox="0 0 240 240" fill="none" xmlns="http://www.w3.org/2000/svg">
<g clip-path="url(#clip0_281_762)">
<path d="M76.1644 157.57C78.9052 151.33 80.6356 144.13 80.7988 135.78C81.5908 94.9416 127.767 63.4272 178.99 98.0664C230.213 132.706 184.942 228 184.942 228" stroke="#003951" stroke-opacity="0.43" stroke-width="1.53379" stroke-miterlimit="10"/>
<path d="M40.3514 228C38.0882 226.222 20.8346 209.352 31.1978 199.697C35.6258 195.576 45.1562 190.764 54.7034 183.427" stroke="#003951" stroke-opacity="0.43" stroke-width="1.53379" stroke-miterlimit="10"/>
<path d="M163.814 125.64C164 126.606 164.489 127.489 165.209 128.16" stroke="#003951" stroke-opacity="0.43" stroke-width="1.53379" stroke-miterlimit="10"/>
<path d="M123.6 144.182C123.245 144.276 122.945 144.343 122.707 144.398C122.529 144.43 122.383 144.461 122.282 144.475H122.261L122.121 144.499C122.121 144.499 122.107 144.482 122.097 144.482C119.697 142.721 120.434 139.442 120.434 139.442C127.61 140.573 129.098 134.76 129.098 134.76C129.005 131.974 128.474 130.663 127.25 129.91C125.971 129.108 123.931 128.902 120.813 128.23L120.297 128.114C115.661 127.061 113.498 122.302 112.644 119.662C112.445 119.077 112.284 118.479 112.164 117.874C106.913 119.846 103.625 122.64 101.731 124.735C100.982 109.882 115.891 112.015 115.891 112.015C118.4 112.051 120.893 112.416 123.307 113.1C123.854 113.34 124.377 113.58 124.877 113.82C125.117 113.942 125.371 114.074 125.597 114.211C125.822 114.348 126.077 114.482 126.297 114.619C126.458 114.713 126.621 114.814 126.777 114.919C130.057 117 132.679 119.97 134.337 123.482C134.361 123.53 134.382 123.579 134.4 123.629C134.475 123.792 134.542 123.958 134.599 124.128C137.973 138.893 127.562 143.119 123.6 144.182Z" fill="#7259F7"/>
<path d="M123.6 144.182C122.553 142.442 123.038 140.342 123.038 140.342C130.207 141.475 131.7 135.662 131.7 135.662C131.546 131.388 130.392 130.586 127.25 129.902C126.086 129.641 124.656 129.401 122.899 129.01C122.17 128.846 121.467 128.578 120.813 128.215C116.04 125.599 114.753 118.762 114.753 118.762C114.014 119.038 113.313 119.338 112.644 119.647C112.445 119.062 112.284 118.465 112.164 117.859C106.913 119.832 103.625 122.626 101.731 124.721C100.982 109.867 115.891 112.001 115.891 112.001C118.4 112.037 120.893 112.402 123.307 113.086C123.854 113.326 124.377 113.566 124.877 113.806C125.117 113.928 125.371 114.06 125.597 114.197C125.822 114.334 126.077 114.468 126.297 114.605C126.458 114.698 126.621 114.799 126.777 114.905C130.057 116.986 132.679 119.956 134.337 123.468C134.361 123.516 134.382 123.564 134.4 123.614C134.475 123.777 134.542 123.944 134.599 124.114C137.973 138.893 127.562 143.119 123.6 144.182Z" fill="#7259F7"/>
<path d="M148.759 209.921C149.868 217.159 151.224 224.28 152.64 228H88.9891C81.3259 206.242 84.9595 182.472 84.9595 182.472L73.6555 182.827C80.4547 170.899 78.0355 160.814 76.8883 157.45C85.7683 155.94 94.6483 154.754 103.622 154.654C103.382 159.79 108.988 165.694 117.074 164.141C120.352 163.517 124.348 162.221 124.435 156.478L126.544 156.847C129.463 157.327 132.103 157.841 134.606 158.419C141.086 159.912 146.654 161.779 153.592 164.141C143.992 171.247 148.764 187.661 148.764 187.661L149.004 188.208L145.939 187.661C145.939 187.661 147.074 198.919 148.759 209.921Z" fill="#353642"/>
<path d="M82.7206 51.7368C89.0669 51.7368 94.2118 46.5919 94.2118 40.2456C94.2118 33.899 89.0669 28.7544 82.7206 28.7544C76.3742 28.7544 71.2294 33.899 71.2294 40.2456C71.2294 46.5919 76.3742 51.7368 82.7206 51.7368Z" fill="#7259F7"/>
<path d="M86.4986 36.4104C86.3371 36.0362 86.1194 35.689 85.853 35.3808C85.3989 34.8406 84.7634 34.4849 84.0655 34.3807C83.3676 34.2763 82.6557 34.4306 82.0634 34.8144C81.6765 35.0645 81.353 35.4014 81.119 35.7986C80.8848 36.1956 80.7463 36.6418 80.7146 37.1016C80.1103 36.883 79.4515 36.8664 78.8369 37.0543C78.2225 37.2422 77.6853 37.6243 77.3066 38.1437C76.9279 38.6628 76.7277 39.2909 76.7366 39.9334C76.7453 40.5758 76.962 41.1984 77.3546 41.7072C78.1778 42.78 79.577 43.4856 80.8442 43.896C81.5093 44.1077 82.1933 44.2531 82.8866 44.3304C83.237 44.3688 85.241 44.6376 85.4282 44.3304C86.6522 42.3792 87.5402 38.796 86.4986 36.4104Z" fill="white"/>
<path d="M63.3862 36.5112C62.6326 36.4272 61.8694 36.3744 61.1086 36.3336C60.2926 36.3744 59.4766 36.4344 58.6606 36.5352C56.0835 36.8227 53.5591 37.4691 51.1606 38.4552C50.0863 38.8971 49.0507 39.4277 48.0646 40.0416C47.3532 40.4693 46.6716 40.9447 46.0246 41.4648C45.5472 40.7801 45.1637 40.0342 44.8846 39.2472C44.4099 37.9193 44.2354 36.5028 44.3741 35.0993C44.5126 33.6958 44.9609 32.3408 45.6862 31.1314C46.4117 29.922 47.3964 28.8886 48.5693 28.1057C49.7422 27.3228 51.0742 26.8097 52.4693 26.6038C53.8644 26.3976 55.2879 26.5035 56.6371 26.9136C57.9864 27.324 59.2277 28.0284 60.2719 28.9764C61.3162 29.9242 62.137 31.0918 62.6756 32.3952C63.2141 33.6987 63.4568 35.1053 63.3862 36.5136V36.5112Z" fill="#7259F7"/>
<path d="M58.6604 36.5352C56.0832 36.8228 53.5587 37.4691 51.1604 38.4552C51.0212 38.0856 50.906 37.7352 50.8676 37.6152C50.6751 37.07 50.5361 36.5074 50.4524 35.9352C50.306 34.8408 50.3276 33.5352 50.8364 32.5392C51.074 32.0609 51.4608 31.6731 51.9384 31.434C52.416 31.195 52.9584 31.118 53.4838 31.2144C54.0092 31.3109 54.4887 31.5759 54.8501 31.969C55.2116 32.3621 55.4355 32.862 55.4876 33.3936C55.8442 33.2547 56.228 33.199 56.6093 33.2309C56.9909 33.2631 57.3598 33.3819 57.6884 33.5784C58.1753 33.8753 58.5406 34.3361 58.7187 34.878C58.8968 35.4197 58.8761 36.0072 58.6604 36.5352Z" fill="white"/>
<path d="M48.0646 40.0392C47.3532 40.4666 46.6716 40.9423 46.0246 41.4624C45.5911 41.7981 45.1745 42.1553 44.7766 42.5328C44.2668 43.019 43.818 43.5655 43.4398 44.16C43.086 44.7132 42.7793 45.2954 42.523 45.9C42.1356 46.8245 41.8265 47.7799 41.599 48.756C41.1427 50.8615 40.8674 53.0021 40.7758 55.1544C39.0883 54.3115 37.7335 52.925 36.9298 51.2184C36.1262 49.5118 35.9203 47.5843 36.3456 45.7464C36.7706 43.9087 37.8022 42.2673 39.2736 41.087C40.745 39.9067 42.5712 39.2561 44.4574 39.24C44.6038 39.24 44.7406 39.24 44.887 39.24C45.9888 39.2928 47.069 39.5645 48.0646 40.0392Z" fill="#7259F7"/>
<path d="M43.44 44.16C43.0863 44.7135 42.7796 45.2955 42.5232 45.9C42.1356 46.8245 41.8268 47.7799 41.5992 48.756C41.1 48.0624 40.6752 47.232 40.608 46.4016C40.5845 46.1031 40.6229 45.8031 40.7206 45.5199C40.8185 45.2369 40.9736 44.977 41.1761 44.7564C41.3789 44.5359 41.6249 44.3597 41.8988 44.2385C42.1726 44.1173 42.4685 44.0539 42.768 44.052C42.9965 44.0494 43.2238 44.0859 43.44 44.16Z" fill="white"/>
<g opacity="0.72">
<path opacity="0.72" d="M96.0049 38.7984C99.4988 38.7984 102.331 35.9662 102.331 32.472C102.331 28.9781 99.4988 26.1456 96.0049 26.1456C92.5109 26.1456 89.6785 28.9781 89.6785 32.472C89.6785 35.9662 92.5109 38.7984 96.0049 38.7984Z" fill="#7259F7"/>
<path opacity="0.72" d="M98.7503 33.6003C98.906 33.4395 99.0371 33.2568 99.1391 33.0579C99.3196 32.7135 99.368 32.3151 99.2752 31.9376C99.1823 31.56 98.9548 31.2296 98.6351 31.0083C98.4275 30.865 98.1894 30.7714 97.9396 30.7352C97.6897 30.6992 97.4351 30.721 97.1951 30.7995C97.1819 30.4448 97.0537 30.104 96.8298 29.8287C96.6059 29.5534 96.2984 29.3585 95.9538 29.2733C95.6094 29.1884 95.2465 29.2176 94.9201 29.3568C94.5937 29.4963 94.3216 29.7382 94.1447 30.0459C93.7703 30.6915 93.7031 31.5507 93.7607 32.2827C93.7912 32.6655 93.8603 33.0442 93.9671 33.4131C94.0199 33.6003 94.3007 34.6755 94.4927 34.7091C95.7407 34.9203 97.7519 34.6251 98.7503 33.6003Z" fill="white"/>
</g>
<g opacity="0.72">
<path opacity="0.72" d="M93.1845 103.303C95.6791 103.303 97.7013 101.281 97.7013 98.7864C97.7013 96.2919 95.6791 94.2697 93.1845 94.2697C90.69 94.2697 88.6677 96.2919 88.6677 98.7864C88.6677 101.281 90.69 103.303 93.1845 103.303Z" fill="#7259F7"/>
<path opacity="0.72" d="M95.1426 99.6002C95.2537 99.4854 95.3468 99.3544 95.4186 99.2114C95.547 98.9661 95.5818 98.6822 95.5158 98.4131C95.45 98.1438 95.2883 97.9082 95.061 97.7498C94.912 97.6466 94.7408 97.5791 94.5613 97.5534C94.3818 97.5275 94.1987 97.5438 94.0266 97.601C94.0158 97.3487 93.9236 97.1068 93.7638 96.9112C93.604 96.7158 93.3853 96.5771 93.1403 96.5164C92.895 96.4557 92.637 96.4758 92.4044 96.574C92.1716 96.6722 91.977 96.843 91.8498 97.061C91.6052 97.5561 91.5095 98.1112 91.5738 98.6594C91.5959 98.9325 91.6458 99.2027 91.7226 99.4658C91.761 99.5978 91.9626 100.368 92.097 100.39C92.9946 100.534 94.4298 100.32 95.1426 99.6002Z" fill="white"/>
</g>
<path d="M83.1379 44.5651L80.1317 50.922C79.0409 53.2286 80.0266 55.9829 82.333 57.0737L88.6901 60.0799C90.9967 61.1707 93.751 60.1853 94.8418 57.8786L97.848 51.5215C98.9388 49.2149 97.9531 46.4606 95.6465 45.3698L89.2896 42.3636C86.983 41.2728 84.2287 42.2585 83.1379 44.5651Z" fill="#7259F7"/>
<path d="M96.1344 52.6368L93.9576 57.24C93.502 58.2014 92.6841 58.9435 91.6828 59.3032C90.6816 59.663 89.5785 59.6116 88.6152 59.16L83.0952 56.5488C82.134 56.0928 81.3926 55.2748 81.0328 54.2738C80.6731 53.2728 80.7242 52.17 81.1752 51.2064L81.3216 50.8944C82.8216 49.6944 85.416 48.0816 86.3616 50.2824C87.7248 53.4504 89.496 52.4256 91.7616 51.1008C93.6624 49.98 95.9328 49.608 96.1344 52.6368Z" fill="white"/>
<path d="M87.578 47.7408C88.5164 47.7408 89.2772 46.98 89.2772 46.0416C89.2772 45.1032 88.5164 44.3424 87.578 44.3424C86.6396 44.3424 85.8788 45.1032 85.8788 46.0416C85.8788 46.98 86.6396 47.7408 87.578 47.7408Z" fill="white"/>
<path d="M104.115 65.3443L100.155 73.7169C98.7195 76.7532 100.017 80.3789 103.053 81.8148L111.426 85.7743C114.462 87.2102 118.087 85.9128 119.523 82.8763L123.483 74.5039C124.919 71.4674 123.622 67.842 120.585 66.406L112.213 62.4465C109.176 61.0106 105.551 62.3081 104.115 65.3443Z" fill="#7259F7"/>
<path d="M121.224 75.9744L118.344 82.0344C117.742 83.2984 116.664 84.2728 115.346 84.7447C114.028 85.2163 112.577 85.1472 111.309 84.5517L104.052 81.12C102.787 80.5181 101.813 79.4402 101.341 78.1221C100.87 76.8041 100.939 75.3528 101.534 74.0856L101.729 73.6752C103.704 72.1008 107.117 69.972 108.362 72.8688C110.16 77.04 112.49 75.6909 115.473 73.9461C117.967 72.4797 120.96 71.9856 121.224 75.9744Z" fill="white"/>
<path d="M109.958 69.528C111.194 69.528 112.195 68.5265 112.195 67.2912C112.195 66.0557 111.194 65.0544 109.958 65.0544C108.723 65.0544 107.722 66.0557 107.722 67.2912C107.722 68.5265 108.723 69.528 109.958 69.528Z" fill="white"/>
<path d="M120.382 41.4911C120.715 42.1051 120.958 42.7639 121.102 43.4471C121.357 44.705 121.282 46.0072 120.884 47.2271C120.485 48.4471 119.777 49.5429 118.829 50.4071C118.078 51.0719 117.12 51.5927 116.357 52.2887C115.802 52.7687 115.394 53.3951 115.178 54.0959C115.138 54.3352 115.042 54.5613 114.898 54.7559C114.451 55.2359 114.017 54.4823 113.63 54.3456C113.011 54.1444 112.339 54.1778 111.742 54.4391C110.173 55.0857 108.43 55.1721 106.805 54.684C105.181 54.1958 103.774 53.1628 102.822 51.7591C101.869 50.3551 101.43 48.6659 101.577 46.9759C101.724 45.286 102.449 43.6982 103.63 42.4799C104.806 41.2799 106.346 40.5191 107.832 39.7319C109.142 39.0359 110.446 38.2919 111.866 37.8815C115.212 36.8879 118.766 38.5463 120.382 41.4911Z" fill="#7259F7"/>
<path d="M106.961 50.1696C107.845 50.1696 108.562 49.453 108.562 48.5688C108.562 47.6847 107.845 46.968 106.961 46.968C106.077 46.968 105.36 47.6847 105.36 48.5688C105.36 49.453 106.077 50.1696 106.961 50.1696Z" fill="white"/>
<path d="M111.273 47.8632C112.158 47.8632 112.874 47.1466 112.874 46.2624C112.874 45.3783 112.158 44.6616 111.273 44.6616C110.389 44.6616 109.673 45.3783 109.673 46.2624C109.673 47.1466 110.389 47.8632 111.273 47.8632Z" fill="white"/>
<path d="M115.32 45.6984C116.204 45.6984 116.92 44.9818 116.92 44.0976C116.92 43.2137 116.204 42.4968 115.32 42.4968C114.435 42.4968 113.719 43.2137 113.719 44.0976C113.719 44.9818 114.435 45.6984 115.32 45.6984Z" fill="white"/>
<path d="M170.088 149.294V149.333L169.496 162.96L169.164 170.426C169.164 170.15 169.179 169.865 169.196 169.589C165.099 168.218 159.836 166.27 155.775 164.892C147.783 162.166 141.761 160.07 134.602 158.424C134.17 156.338 133.762 151.865 135.771 145.334C138.651 136.018 139.599 126.564 138.135 124.738C138.121 124.717 138.103 124.699 138.082 124.685C137.04 120.929 134.285 123.36 134.285 123.36C134.285 123.36 134.302 123.398 134.309 123.42C133.736 122.47 133.106 121.554 132.423 120.679C132.445 120.543 132.482 120.41 132.531 120.281C133.416 117.617 138.135 116.976 138.135 116.976C145.042 117.485 148.676 120.564 150.509 124.608C152.124 129.713 151.172 135.247 150.963 140.484C150.879 142.754 150.555 146.244 152.288 148.082C153.888 151.109 157.916 149.801 159.008 149.47C159.363 149.369 160.284 149.306 161.494 149.268C163.959 149.208 167.585 149.254 169.796 149.292C169.904 149.294 169.997 149.294 170.088 149.294Z" fill="#7259F7"/>
<path d="M74.4956 26.8104C73.9928 26.9225 73.476 26.9611 72.962 26.9256C72.0192 26.8512 71.1118 26.5329 70.3289 26.0025C69.546 25.4719 68.9144 24.7471 68.4956 23.8991C68.1764 23.2295 68.0156 22.4447 67.6676 21.7631C67.4405 21.2737 67.0805 20.8579 66.6284 20.5631C66.4671 20.4862 66.3262 20.3719 66.218 20.2295C65.978 19.8167 66.5924 19.6631 66.7676 19.4183C67.0352 19.0201 67.1487 18.5381 67.0868 18.0623C66.9442 16.8171 67.2363 15.5609 67.9133 14.5062C68.5901 13.4514 69.6109 12.6629 70.8022 12.2739C71.9936 11.8849 73.2828 11.9194 74.4519 12.3716C75.6207 12.8237 76.5977 13.6657 77.2172 14.7551C77.8268 15.8327 78.05 17.0783 78.3044 18.2903C78.53 19.3583 78.7844 20.4311 78.7844 21.5231C78.806 24.0888 76.9076 26.268 74.4956 26.8104Z" fill="#7259F7"/>
<path d="M72.2212 17.0448C72.8719 17.0448 73.3996 16.5172 73.3996 15.8664C73.3996 15.2156 72.8719 14.688 72.2212 14.688C71.5704 14.688 71.0428 15.2156 71.0428 15.8664C71.0428 16.5172 71.5704 17.0448 72.2212 17.0448Z" fill="white"/>
<path d="M72.9739 20.568C73.6248 20.568 74.1523 20.0404 74.1523 19.3896C74.1523 18.7388 73.6248 18.2112 72.9739 18.2112C72.3233 18.2112 71.7955 18.7388 71.7955 19.3896C71.7955 20.0404 72.3233 20.568 72.9739 20.568Z" fill="white"/>
<path d="M73.6829 23.8752C74.3336 23.8752 74.8613 23.3476 74.8613 22.6968C74.8613 22.046 74.3336 21.5184 73.6829 21.5184C73.032 21.5184 72.5045 22.046 72.5045 22.6968C72.5045 23.3476 73.032 23.8752 73.6829 23.8752Z" fill="white"/>
<g opacity="0.72">
<path opacity="0.72" d="M144.758 69.6552C149.705 69.6552 153.715 65.645 153.715 60.6984C153.715 55.7517 149.705 51.7416 144.758 51.7416C139.812 51.7416 135.802 55.7517 135.802 60.6984C135.802 65.645 139.812 69.6552 144.758 69.6552Z" fill="#7259F7"/>
<path opacity="0.72" d="M145.094 64.8817C145.396 64.9779 145.711 65.0273 146.028 65.0281C146.578 65.0353 147.112 64.8413 147.529 64.483C147.947 64.1247 148.219 63.6265 148.296 63.0817C148.345 62.726 148.311 62.3638 148.196 62.0235C148.082 61.6832 147.89 61.3743 147.636 61.1209C148.075 60.877 148.422 60.4971 148.626 60.0385C148.831 59.5798 148.88 59.0674 148.768 58.5781C148.656 58.0887 148.387 57.6493 148.003 57.3257C147.62 57.0022 147.141 56.8121 146.64 56.7841C145.586 56.7241 144.458 57.1873 143.568 57.7249C143.104 58.0083 142.67 58.3371 142.272 58.7065C142.068 58.8937 140.887 59.9377 140.968 60.1993C141.496 61.9201 143.155 64.2793 145.094 64.8817Z" fill="white"/>
</g>
<path d="M148.918 97.2552C148.357 98.069 147.682 98.7967 146.911 99.4152C145.485 100.542 143.79 101.279 141.994 101.555C140.197 101.831 138.359 101.636 136.661 100.99C135.338 100.464 134.071 99.5832 132.703 99.0696C131.743 98.6755 130.691 98.5591 129.667 98.7336C129.34 98.8356 128.993 98.8586 128.654 98.8008C127.766 98.5416 128.438 97.5144 128.364 96.9384C128.222 96.0271 127.752 95.1991 127.042 94.6104C125.211 93.0434 123.978 90.8918 123.551 88.5201C123.125 86.1482 123.531 83.7019 124.702 81.5954C125.873 79.4889 127.735 77.8516 129.974 76.9612C132.214 76.0706 134.692 75.9816 136.99 76.7088C139.26 77.4288 141.202 78.8904 143.146 80.2656C144.859 81.4776 146.623 82.6656 148.058 84.1824C151.44 87.7848 151.61 93.3384 148.918 97.2552Z" fill="#7259F7"/>
<path d="M131.41 87.0792C132.661 87.0792 133.676 86.0649 133.676 84.8136C133.676 83.5625 132.661 82.548 131.41 82.548C130.159 82.548 129.145 83.5625 129.145 84.8136C129.145 86.0649 130.159 87.0792 131.41 87.0792Z" fill="white"/>
<path d="M137.076 91.0584C138.328 91.0584 139.342 90.0442 139.342 88.7928C139.342 87.5417 138.328 86.5272 137.076 86.5272C135.825 86.5272 134.811 87.5417 134.811 88.7928C134.811 90.0442 135.825 91.0584 137.076 91.0584Z" fill="white"/>
<path d="M142.395 94.7903C143.646 94.7903 144.66 93.7761 144.66 92.5247C144.66 91.2736 143.646 90.2592 142.395 90.2592C141.144 90.2592 140.129 91.2736 140.129 92.5247C140.129 93.7761 141.144 94.7903 142.395 94.7903Z" fill="white"/>
<g opacity="0.54">
<path opacity="0.54" d="M80.117 30.024C80.087 30.4152 80.0268 30.8037 79.937 31.1856L78.9338 35.5368C78.6266 36.8688 78.281 38.2728 77.3282 39.252C75.5522 41.0688 72.5786 40.6536 70.0994 40.1016L64.013 38.7504C62.6162 38.4384 61.1954 38.1216 59.933 37.4256C58.6706 36.7296 57.5954 35.5992 57.293 34.1952C57.0794 33.1608 57.3098 32.0928 57.533 31.0608L58.481 26.88C58.7858 25.512 59.1314 24.0648 60.1178 23.0712C61.877 21.2976 64.7906 21.7008 67.2314 22.2288L73.4546 23.58C77.213 24.4032 80.417 26.1456 80.117 30.024Z" fill="#7259F7"/>
<path opacity="0.54" d="M71.7237 30.1416C71.9841 30.3842 72.1761 30.6909 72.2803 31.0312C72.3844 31.3716 72.3974 31.7332 72.3177 32.08C72.2378 32.4268 72.0683 32.7465 71.8259 33.0069C71.5833 33.2673 71.2768 33.4596 70.9365 33.564L69.0813 34.1328L67.2285 34.6992C66.8875 34.804 66.5251 34.817 66.1775 34.7368C65.8298 34.6567 65.5096 34.4863 65.249 34.2429C64.9881 33.9996 64.7963 33.6916 64.6927 33.3504C64.589 33.0091 64.577 32.6464 64.6581 32.2992L65.0925 30.408L65.5269 28.5192C65.6073 28.1724 65.7772 27.8527 66.0201 27.5925C66.2627 27.3321 66.5697 27.1401 66.91 27.036C67.2506 26.9316 67.6123 26.9186 67.9593 26.9983C68.3061 27.078 68.626 27.2474 68.8869 27.4896L70.3053 28.812L71.7237 30.1416Z" fill="white"/>
</g>
<g opacity="0.54">
<path opacity="0.54" d="M148.512 38.4C148.482 38.7912 148.422 39.1795 148.332 39.5616L147.329 43.92C147.022 45.252 146.676 46.656 145.723 47.6328C143.947 49.452 140.974 49.0344 138.495 48.4848L132.408 47.1312C131.011 46.8216 129.591 46.5024 128.328 45.8088C127.066 45.1152 125.991 43.98 125.688 42.5784C125.475 41.544 125.705 40.476 125.928 39.444L126.879 35.28C127.181 33.9096 127.527 32.4648 128.513 31.4688C130.272 29.6976 133.186 30.0984 135.627 30.6288L141.84 31.9704C145.608 32.784 148.812 34.5288 148.512 38.4Z" fill="#7259F7"/>
<path opacity="0.54" d="M140.119 38.5226C140.379 38.7653 140.571 39.0725 140.675 39.4128C140.779 39.7531 140.792 40.115 140.713 40.4618C140.633 40.8089 140.463 41.1285 140.221 41.3894C139.979 41.6501 139.672 41.8425 139.332 41.9474L137.477 42.5138L135.624 43.0826C135.283 43.1873 134.92 43.2002 134.573 43.1201C134.225 43.0401 133.905 42.8697 133.644 42.6261C133.384 42.3828 133.192 42.0749 133.088 41.7338C132.984 41.3925 132.972 41.0299 133.054 40.6826L133.488 38.7938L133.922 36.905C134.003 36.5582 134.173 36.2385 134.415 35.9781C134.658 35.7177 134.965 35.526 135.305 35.4216C135.646 35.3172 136.008 35.3042 136.355 35.3839C136.702 35.4636 137.021 35.633 137.282 35.8754L138.701 37.1978L140.119 38.5226Z" fill="white"/>
</g>
<g opacity="0.54">
<path opacity="0.54" d="M119.791 96.7872C119.776 96.9692 119.747 97.1499 119.705 97.3272L119.239 99.36C119.095 99.9792 118.934 100.632 118.49 101.088C117.665 101.935 116.28 101.741 115.13 101.484L112.296 100.855C111.637 100.741 110.999 100.533 110.4 100.238C110.101 100.089 109.837 99.877 109.626 99.6176C109.415 99.3581 109.261 99.0569 109.176 98.7336C109.11 98.2448 109.149 97.7475 109.289 97.2744L109.721 95.3304C109.862 94.6944 110.023 94.02 110.484 93.5568C111.302 92.7312 112.658 92.9184 113.793 93.1656L116.693 93.7944C118.437 94.1688 119.93 94.98 119.791 96.7872Z" fill="#7259F7"/>
<path opacity="0.54" d="M115.881 96.8427C116.002 96.9555 116.092 97.0983 116.141 97.2569C116.189 97.4153 116.195 97.584 116.158 97.7456C116.121 97.9073 116.042 98.0561 115.929 98.1773C115.815 98.2988 115.672 98.388 115.514 98.4363L114.652 98.7003L113.788 98.9643C113.63 99.0137 113.461 99.0204 113.299 98.9837C113.137 98.9472 112.987 98.8683 112.865 98.7552C112.743 98.6422 112.654 98.4992 112.605 98.3403C112.556 98.1814 112.551 98.0124 112.588 97.8507L112.799 96.9603L113.001 96.0795C113.037 95.9175 113.116 95.768 113.229 95.6463C113.342 95.5244 113.485 95.4346 113.644 95.3859C113.803 95.3372 113.972 95.3314 114.134 95.3688C114.295 95.4063 114.444 95.4857 114.566 95.5995L115.226 96.2139L115.881 96.8427Z" fill="white"/>
</g>
<g opacity="0.54">
<path opacity="0.54" d="M89.9134 12.5112C90.1102 12.6136 90.2993 12.7299 90.4798 12.8592L92.4958 14.3328C93.115 14.7816 93.7606 15.2688 94.0534 15.9744C94.5982 17.2872 93.7294 18.7248 92.9014 19.8768L90.8686 22.7088C90.4333 23.383 89.9031 23.9909 89.2942 24.5136C88.6606 24.9936 87.8398 25.3152 87.055 25.1544C86.4766 25.0392 85.9774 24.6744 85.4974 24.3408L83.5534 22.9464C82.9174 22.4904 82.2502 21.9864 81.955 21.2664C81.4294 19.9704 82.2766 18.5616 83.0854 17.4264L85.147 14.5224C86.383 12.7704 87.9838 11.5056 89.9134 12.5112Z" fill="#7259F7"/>
<path opacity="0.54" d="M88.1279 16.8527C88.3091 16.7724 88.508 16.741 88.7051 16.7617C88.9021 16.7823 89.0903 16.8543 89.2508 16.9704C89.4114 17.0864 89.5386 17.2426 89.6199 17.4233C89.7013 17.6039 89.7337 17.8027 89.7143 17.9999L89.5991 19.0799L89.4839 20.1599C89.4628 20.3578 89.39 20.5467 89.2727 20.7075C89.1553 20.8683 88.9979 20.9953 88.816 21.0759C88.6338 21.1564 88.4339 21.1876 88.2359 21.1662C88.0381 21.1449 87.8492 21.0718 87.6887 20.9543L86.8127 20.3159L85.9367 19.6799C85.7754 19.5629 85.6477 19.4053 85.5668 19.2232C85.4859 19.0411 85.4545 18.8408 85.4756 18.6427C85.4967 18.4445 85.5699 18.2554 85.6875 18.0945C85.8051 17.9336 85.9631 17.8066 86.1455 17.7263L87.1367 17.2871L88.1279 16.8527Z" fill="white"/>
</g>
<path d="M184.932 193.68C184.931 193.722 184.926 193.764 184.917 193.805C184.914 193.815 184.914 193.826 184.917 193.836C184.58 196.077 183.649 198.188 182.222 199.949C182.205 199.963 182.198 199.987 182.184 200.002C179.99 202.735 176.81 204.708 173.592 205.946C170.304 207.226 166.97 207.742 164.597 207.564H164.544C161.64 207.348 158.453 207.725 155.664 208.248C155.371 208.303 155.078 208.356 154.785 208.418C152.945 208.788 151.128 209.249 149.328 209.758L148.989 209.851L148.764 209.911C147.084 198.91 145.946 187.644 145.946 187.644L180.266 193.742C181.811 194.023 183.395 194.002 184.932 193.68Z" fill="#7259F7"/>
<path d="M114.451 141.384C112.647 143.174 110.23 143.52 107.856 144.048C102.463 145.248 97.9419 143.885 97.7043 137.686C97.5507 133.697 97.9731 129.706 100.387 126.394C103.279 122.426 107.722 119.784 112.147 117.854C112.147 117.854 114.178 128.242 123.427 128.693C132.677 129.144 130.426 141.338 119.587 139.306" stroke="black" stroke-width="1.53379" stroke-miterlimit="10"/>
<path d="M121.405 144.499C121.645 144.499 121.866 144.499 122.089 144.482C122.143 144.479 122.198 144.479 122.252 144.482H122.274L122.699 144.444" stroke="black" stroke-width="1.53379" stroke-miterlimit="10"/>
<path d="M131.652 119.129C130.135 117.326 128.323 115.795 126.293 114.6C126.066 114.451 125.833 114.315 125.592 114.192C125.352 114.055 125.112 113.923 124.872 113.801C124.365 113.539 123.84 113.292 123.302 113.081C120.128 111.752 116.72 111.072 113.28 111.082C94.7709 111.082 99.9141 127.097 99.9141 127.097" stroke="black" stroke-width="1.53379" stroke-miterlimit="10"/>
<path d="M134.724 158.266C134.085 154.862 134.885 149.566 135.77 145.33C136.565 141.557 137.434 138.631 137.434 138.631C138.744 130.932 138.689 126.804 138.082 124.68C137.04 120.929 134.285 123.36 134.285 123.36" stroke="black" stroke-width="1.53379" stroke-miterlimit="10"/>
<path d="M138.081 124.68C137.04 120.929 134.285 123.36 134.285 123.36C133.808 122.275 133.22 121.243 132.53 120.281C132.252 119.894 131.959 119.516 131.652 119.148C132.475 116.962 134.671 115.658 136.932 115.483C142.867 115.027 148.718 118.956 150.506 124.603C152.121 129.708 151.169 135.242 150.96 140.479C150.876 142.75 150.552 146.239 152.285 148.078C152.376 148.171 152.462 148.255 152.561 148.339C154.001 149.58 156.295 149.65 159.014 149.465C159.806 149.41 160.639 149.342 161.501 149.263C164.141 149.023 167.021 148.817 169.802 149.287L170.078 149.333C169.994 153.869 169.716 158.419 169.485 162.955C169.363 165.163 169.245 167.374 169.185 169.584C165.089 168.214 159.825 166.265 155.765 164.887L153.6 164.141C146.661 161.777 141.103 159.912 134.613 158.419C132.11 157.841 129.47 157.325 126.552 156.847L123.449 156.302C123.24 156.266 123.052 156.157 122.917 155.995C122.781 155.833 122.708 155.628 122.709 155.417V144.437C124.782 144.261 126.785 143.608 128.563 142.529C130.341 141.449 131.845 139.973 132.957 138.216C135.96 133.387 136.245 128.446 134.604 124.109C134.545 123.936 134.477 123.766 134.4 123.6C134.382 123.55 134.361 123.501 134.337 123.454C134.337 123.439 134.323 123.415 134.316 123.398" stroke="black" stroke-width="1.53379" stroke-miterlimit="10"/>
<path d="M57.9741 164.141C58.9341 156.701 59.3757 149.134 60.3069 141.65" stroke="black" stroke-width="1.53379" stroke-miterlimit="10"/>
<path d="M60.4613 140.479C60.7229 138.454 61.0325 136.428 61.4213 134.426C61.4357 134.328 61.4525 134.234 61.4741 134.143C61.6901 132.958 61.9301 131.779 62.1941 130.601C62.9957 127.075 65.7941 124.495 67.7837 121.622L67.9061 121.315C72.1985 115.07 74.575 107.709 74.7437 100.133C74.7917 97.392 74.6837 91.9728 71.5421 90.8544C69.7781 90.2232 67.9061 91.4568 66.9293 92.8656C66.528 93.4471 66.2052 94.079 65.9693 94.7448" stroke="black" stroke-width="1.53379" stroke-miterlimit="10"/>
<path d="M88.9898 228C81.3266 206.242 84.9602 182.472 84.9602 182.472L73.6586 182.827L43.8458 183.773C42.0948 183.831 40.3519 183.512 38.7345 182.838C37.1174 182.164 35.6637 181.151 34.4716 179.867C33.2798 178.583 32.3772 177.059 31.8252 175.396C31.2732 173.733 31.0848 171.971 31.2722 170.23L40.1282 137.899" stroke="black" stroke-width="1.53379" stroke-miterlimit="10"/>
<path d="M40.5571 136.32L41.335 133.488L42.2378 130.277" stroke="black" stroke-width="1.53379" stroke-miterlimit="10"/>
<path d="M43.0061 127.512L43.5221 125.657C44.2054 123.194 44.0364 120.572 43.0421 118.217L42.0173 115.769C41.3477 113.729 41.1389 112.742 41.9789 110.748C42.3763 109.807 42.9341 108.942 43.6277 108.192C45.6509 105.96 48.4997 104.851 51.4349 104.472C54.3701 104.093 57.6101 104.388 59.9717 106.291C61.5749 107.582 63.0917 110.657 62.0429 112.666C61.2821 114.127 59.6717 114.552 58.3013 114.029C57.8215 113.849 57.3895 113.562 57.0389 113.189C55.4213 111.494 51.9989 111.125 50.7989 112.774" stroke="black" stroke-width="1.53379" stroke-miterlimit="10"/>
<path d="M169.118 172.279C169.118 171.677 169.14 171.079 169.164 170.47V170.422C169.164 170.146 169.178 169.86 169.195 169.584" stroke="black" stroke-width="1.53379" stroke-miterlimit="10"/>
<path d="M166.04 114.631C163.229 116.134 159.778 119.911 165.601 128.791C167.521 131.717 169.548 134.88 169.834 138.492C170.1 142.101 170.185 145.722 170.088 149.34" stroke="black" stroke-width="1.53379" stroke-miterlimit="10"/>
<path d="M138.783 186.384L145.464 187.57L145.944 187.654L149.009 188.201L180.26 193.752C181.807 194.033 183.393 194.012 184.932 193.69C187.605 193.127 190.013 191.688 191.774 189.601C193.535 187.514 194.549 184.898 194.655 182.17L190.037 144.367L189.015 136.298C188.69 133.761 189.235 131.188 190.56 129L191.931 126.72C191.931 126.72 194.316 123.24 190.143 122.986C187.894 122.854 185.554 123.466 183.521 124.387C182.36 124.903 180.728 125.827 180.072 127.097C179.806 127.577 179.716 128.136 179.818 128.676C180.298 131.155 183.418 132.202 185.477 131.155" stroke="black" stroke-width="1.53379" stroke-miterlimit="10"/>
<path d="M191.52 123.166C191.52 123.166 193.879 121.762 192.283 118.308C191.717 117.079 190.001 116.227 186.307 116.462C176.467 117.089 172.613 127.207 180.084 127.097" stroke="black" stroke-width="1.53379" stroke-miterlimit="10"/>
<path d="M189.278 116.446C191.462 113.436 187.598 110.556 184.783 110.654C182.129 110.748 179.443 111.73 177.118 112.958C173.882 114.667 169.706 117.977 170.902 122.165C171.254 123.398 174.046 124.922 175.87 124.042" stroke="black" stroke-width="1.53379" stroke-miterlimit="10"/>
<path d="M170.695 120.677C170.695 120.677 170.695 120.677 170.695 120.691C169.171 123.602 161.957 120.691 166.03 114.631C166.981 113.291 168.122 112.095 169.416 111.082C179.573 102.782 181.843 111.221 181.829 110.719" stroke="black" stroke-width="1.53379" stroke-miterlimit="10"/>
<path d="M175.115 124.109C175.115 124.109 178.831 126.749 177.691 131.148" stroke="black" stroke-width="1.53379" stroke-miterlimit="10"/>
<path d="M44.316 102.991C44.076 102.046 44.1072 100.853 44.6688 99.3263C45.4776 97.1327 47.8344 95.6927 50.1288 94.7447C50.9664 94.3991 51.8088 94.1135 52.5288 93.8903C55.032 93.1223 57.78 92.7143 60.4488 92.9831C61.3481 93.0703 62.2375 93.2406 63.1056 93.4919C64.1069 93.7806 65.065 94.2021 65.9544 94.7447C68.148 96.0935 69.6336 98.1407 70.5264 100.829C71.304 103.147 71.604 105.902 69.6792 107.35" stroke="black" stroke-width="1.53379" stroke-miterlimit="10"/>
<path d="M69.8545 138.199L69.1465 141.626C69.1229 141.742 69.0766 141.851 69.0099 141.948C68.9432 142.045 68.8577 142.127 68.7586 142.191C68.6593 142.254 68.5484 142.296 68.4325 142.316C68.3163 142.335 68.1977 142.331 68.0833 142.303C65.3593 141.658 62.9713 141.058 60.4609 140.479C59.2153 140.186 57.9289 139.91 56.5657 139.625C51.2377 138.523 45.9169 137.28 40.5601 136.32C38.3209 135.919 36.0793 135.571 33.8233 135.31C32.5609 135.163 31.2817 135.103 30.0121 135.01C29.7346 135.003 29.4656 134.912 29.2417 134.748C28.0417 133.87 29.2417 131.014 29.5033 129.828C29.5033 129.814 29.5033 129.797 29.5033 129.782C29.6881 128.873 34.9153 129.134 42.2233 130.274C44.7721 130.675 47.5729 131.174 50.5081 131.777C54.6337 132.624 58.3537 133.538 61.3945 134.417C61.9177 134.57 62.4193 134.717 62.8969 134.863C62.8969 134.863 62.8969 134.863 62.9113 134.863C63.5185 135.055 64.0897 135.24 64.6273 135.425C68.0233 136.584 69.9793 137.592 69.8545 138.199Z" fill="#7259F7"/>
<path d="M69.8545 138.199L69.1465 141.626C69.1229 141.742 69.0766 141.851 69.0099 141.948C68.9432 142.045 68.8577 142.127 68.7586 142.191C68.6593 142.254 68.5484 142.296 68.4325 142.316C68.3163 142.335 68.1977 142.331 68.0833 142.303C65.3593 141.658 62.9713 141.058 60.4609 140.479C59.2153 140.186 57.9289 139.91 56.5657 139.625C51.2377 138.523 45.9169 137.28 40.5601 136.32C38.3209 135.919 36.0793 135.571 33.8233 135.31C32.5609 135.163 31.2817 135.103 30.0121 135.01C29.7346 135.003 29.4656 134.912 29.2417 134.748C28.0417 133.87 29.2417 131.014 29.5033 129.828C29.5033 129.814 29.5033 129.797 29.5033 129.782C29.6881 128.873 34.9153 129.134 42.2233 130.274C44.7721 130.675 47.5729 131.174 50.5081 131.777C54.6337 132.624 58.3537 133.538 61.3945 134.417C61.9177 134.57 62.4193 134.717 62.8969 134.863C62.8969 134.863 62.8969 134.863 62.9113 134.863C63.5185 135.055 64.0897 135.24 64.6273 135.425C68.0233 136.584 69.9793 137.592 69.8545 138.199Z" stroke="black" stroke-width="1.53379" stroke-miterlimit="10"/>
<path d="M62.3806 110.82L63.0622 112.186C63.919 113.124 65.1046 113.717 66.7294 113.309C69.9166 112.517 70.231 109.874 69.6766 107.35C69.5813 106.891 69.4579 106.439 69.307 105.996C68.5606 103.769 67.4061 101.976 65.7885 100.668C64.6392 99.7376 63.311 99.0531 61.8862 98.6569C60.7253 98.3216 59.5274 98.1305 58.3198 98.0881C55.9469 98.0062 53.5776 98.3309 51.3142 99.0481C49.051 99.7417 45.955 100.934 44.3086 102.982C43.9399 103.431 43.6478 103.939 43.4446 104.484C42.9382 105.862 42.8518 106.978 43.0294 107.88L43.1998 108.72" stroke="black" stroke-width="1.53379" stroke-miterlimit="10"/>
<path d="M63.264 93.5448L64.056 90.264L64.9968 86.4C65.1298 85.8427 65.1463 85.2643 65.0458 84.7003C64.9452 84.1366 64.7294 83.5994 64.4122 83.1226C64.0951 82.6457 63.683 82.2391 63.2018 81.9286C62.7204 81.6178 62.1804 81.4097 61.6152 81.3168C61.3939 81.2801 61.17 81.2626 60.9456 81.264C59.9959 81.2616 59.0743 81.5851 58.3344 82.1806C57.5945 82.776 57.0811 83.6071 56.88 84.5352C56.64 85.6536 56.34 87.0144 56.0088 88.548C55.6944 90.0024 55.3464 91.596 54.9768 93.276" stroke="black" stroke-width="1.53379" stroke-miterlimit="10"/>
<path d="M53.8632 98.4339V98.4264" stroke="black" stroke-width="1.02253" stroke-miterlimit="10"/>
<path d="M50.8054 112.771C50.5654 113.95 50.4286 114.691 50.4358 114.818C50.4358 114.818 50.4358 114.818 50.4358 114.835C49.3966 121.819 46.339 125.554 43.0126 127.5C40.9781 128.658 38.7058 129.335 36.3694 129.48" stroke="black" stroke-width="1.53379" stroke-miterlimit="10"/>
<path d="M58.3202 114.026C58.3202 114.026 52.7474 128.88 61.4618 134.146C61.9226 134.422 62.4041 134.663 62.9018 134.866C63.4982 135.113 64.1138 135.311 64.7426 135.458" stroke="black" stroke-width="1.53379" stroke-miterlimit="10"/>
<path d="M68.6856 142.234C68.6856 142.234 68.724 142.92 60.3072 141.65C57.4272 141.218 53.556 140.556 48.3504 139.555C45.0864 138.931 42.3744 138.377 40.128 137.899C28.3248 135.374 29.2392 134.75 29.2392 134.75" stroke="black" stroke-width="1.53379" stroke-miterlimit="10"/>
<path d="M92.3998 58.74C90.6046 68.256 84.691 78.2736 77.5198 84.7032C74.587 87.3432 71.1766 89.184 67.495 89.9088C66.3653 90.1384 65.2159 90.2568 64.063 90.2616L64.9966 86.4C65.2258 85.4488 65.1142 84.4476 64.6807 83.5704C64.2475 82.6932 63.5201 81.996 62.6254 81.6C62.3023 81.4613 61.9639 81.3604 61.6174 81.3C61.3954 81.2632 61.1705 81.2455 60.9454 81.2472C59.9938 81.2457 59.0705 81.5712 58.3303 82.1693C57.5902 82.7676 57.078 83.602 56.8798 84.5328C56.7334 85.2336 56.5558 86.028 56.3638 86.8968C47.2438 80.868 43.2886 67.9728 43.7278 57.5016C43.867 54.0216 44.059 49.44 45.583 45.8976C46.0973 44.6352 46.8651 43.4916 47.839 42.5376C52.159 38.472 58.0726 36.6168 64.171 36.3384C68.8517 36.5592 73.4583 37.5938 77.7838 39.396C85.8478 42.8016 94.2622 48.84 92.3998 58.74Z" fill="#7259F7"/>
<path d="M92.3998 58.74C90.6046 68.256 84.691 78.2736 77.5198 84.7032C74.587 87.3432 71.1766 89.184 67.495 89.9088L68.347 86.4C68.4799 85.8429 68.4965 85.2643 68.3959 84.7003C68.2954 84.1365 68.0796 83.5994 67.7623 83.1225C67.4453 82.6457 67.0332 82.2391 66.552 81.9285C66.0706 81.618 65.5306 81.4097 64.9654 81.3168C64.7441 81.2801 64.5202 81.2625 64.2958 81.264C63.7171 81.2616 63.1447 81.3818 62.6158 81.6168C62.2927 81.4781 61.9543 81.3773 61.6078 81.3168C61.3858 81.2801 61.1609 81.2623 60.9358 81.264C59.9883 81.2637 59.0688 81.588 58.3311 82.1827C57.5931 82.7774 57.0809 83.6066 56.8798 84.5328C56.7334 85.2336 56.5558 86.028 56.3638 86.8968C47.2438 80.868 43.2886 67.9728 43.7278 57.5016C43.867 54.0216 44.059 49.44 45.583 45.8976C46.0973 44.6352 46.8651 43.4916 47.839 42.5376C52.159 38.472 58.0726 36.6168 64.171 36.3384C68.8517 36.5592 73.4583 37.5938 77.7838 39.396C85.8478 42.8016 94.2622 48.84 92.3998 58.74Z" fill="#7259F7"/>
<path d="M92.4005 58.7425C90.6077 68.2585 84.6941 78.2761 77.5205 84.7057C73.6805 88.1473 69.0461 90.2401 64.0565 90.2641L64.9973 86.4001C65.13 85.843 65.1466 85.2644 65.046 84.7004C64.9454 84.1366 64.7299 83.5995 64.4126 83.1226C64.0954 82.6457 63.6833 82.2392 63.2021 81.9286C62.7209 81.6178 62.1809 81.4097 61.6157 81.3169C61.3944 81.2801 61.1702 81.2626 60.9461 81.2641C59.9964 81.2617 59.0746 81.5854 58.3346 82.1806C57.5947 82.7761 57.0814 83.6072 56.8805 84.5353C56.6405 85.6537 56.3405 87.0145 56.0093 88.5481C44.7533 83.5585 39.8933 69.0601 40.3805 57.5041C40.5173 54.0241 40.7093 49.4425 42.2357 45.9001C42.749 44.6372 43.5168 43.4933 44.4917 42.54C52.9901 34.548 67.6133 35.1 77.7845 39.3984C85.8461 42.8041 94.2629 48.84 92.4005 58.7425Z" stroke="black" stroke-width="1.53379" stroke-miterlimit="10"/>
<path d="M92.352 59.0856C94.2936 61.4088 96.1152 65.3016 94.512 71.0856C94.2655 71.9983 93.9127 72.8786 93.4608 73.7088C90.912 78.2688 85.992 79.068 82.6752 79.02" stroke="black" stroke-width="1.53379" stroke-miterlimit="10"/>
<path d="M90.8738 63.9504C92.5538 65.9616 94.1066 69.1464 93.4586 73.7136C93.3557 74.4468 93.2042 75.1724 93.005 75.8856C90.605 84.5064 81.7946 84.0816 78.7706 83.6616" stroke="black" stroke-width="1.53379" stroke-miterlimit="10"/>
<path d="M43.8211 75.84C41.9443 76.2264 31.3243 74.0472 31.1947 65.1936C31.1565 63.9936 31.3828 62.7998 31.8571 61.6968C33.5203 57.948 37.9075 56.7624 40.4347 56.376" stroke="black" stroke-width="1.53379" stroke-miterlimit="10"/>
<path d="M41.9114 71.4024C39.9914 71.52 29.789 67.8792 30.8954 59.0928C31.0274 57.9027 31.4181 56.756 32.0402 55.7328C34.2002 52.2504 38.7218 51.6912 41.2754 51.6528" stroke="black" stroke-width="1.53379" stroke-miterlimit="10"/>
<path d="M84.96 182.474C84.96 182.474 85.1784 180.806 86.3789 177.038" stroke="black" stroke-width="1.53379" stroke-miterlimit="10"/>
<path d="M124.43 156.463V156.48C124.344 162.218 120.35 163.519 117.07 164.143C108.984 165.689 103.37 159.792 103.618 154.656" stroke="black" stroke-width="1.53379" stroke-miterlimit="10"/>
<path d="M105.152 124.889C105.152 124.889 105.392 127.529 103.095 130.934C102.48 131.851 104.607 132.228 105.113 132.398" stroke="black" stroke-width="1.53379" stroke-miterlimit="10"/>
<path d="M114.411 130.602C115.775 128.24 115.324 125.426 113.403 124.317C111.483 123.208 108.82 124.225 107.456 126.587C106.092 128.949 106.544 131.763 108.464 132.872C110.385 133.981 113.047 132.965 114.411 130.602Z" stroke="black" stroke-width="1.53379" stroke-miterlimit="10"/>
<path d="M104.884 127.547C106.248 125.173 105.79 122.351 103.86 121.242C101.931 120.133 99.2616 121.158 97.8977 123.532C96.5338 125.905 96.9922 128.727 98.9213 129.836C100.851 130.945 103.52 129.92 104.884 127.547Z" stroke="black" stroke-width="1.53907" stroke-miterlimit="10"/>
<path d="M101.561 121.786V122.506C101.962 122.502 102.356 122.605 102.703 122.806C103.026 123.004 103.3 123.273 103.504 123.592C103.708 123.911 103.837 124.273 103.882 124.649C104.012 125.587 103.816 126.542 103.327 127.354C102.607 128.59 101.407 129.386 100.219 129.386C99.8186 129.391 99.4243 129.289 99.0768 129.089C98.7542 128.89 98.4809 128.621 98.2769 128.302C98.0726 127.983 97.9435 127.622 97.8984 127.246C97.7681 126.307 97.9639 125.351 98.4528 124.538C99.1728 123.305 100.373 122.506 101.561 122.506V121.786ZM101.561 121.786C100.174 121.786 98.7024 122.669 97.8336 124.186C96.6336 126.264 97.0296 128.746 98.7192 129.706C99.1752 129.968 99.6931 130.105 100.219 130.102C101.606 130.102 103.078 129.216 103.949 127.702C105.149 125.626 104.75 123.142 103.061 122.182C102.604 121.921 102.087 121.785 101.561 121.788V121.786Z" fill="white"/>
<path d="M103.947 127.705C105.147 125.627 104.751 123.153 103.062 122.178C101.374 121.203 99.0321 122.097 97.8326 124.175C96.6331 126.252 97.0296 128.727 98.718 129.702C100.407 130.677 102.748 129.783 103.947 127.705Z" fill="#7259F7"/>
<path d="M114.517 129.919C115.716 127.831 115.314 125.349 113.617 124.374C111.921 123.399 109.573 124.301 108.374 126.388C107.174 128.476 107.577 130.958 109.273 131.933C110.97 132.908 113.317 132.006 114.517 129.919Z" fill="#7259F7"/>
<path d="M105.12 125.76C105.12 125.76 105.84 124.687 107.465 126.586" stroke="black" stroke-width="1.53379" stroke-miterlimit="10"/>
<path d="M112.185 128.382C112.576 127.87 112.541 127.187 112.107 126.855C111.673 126.524 111.004 126.67 110.613 127.182C110.222 127.694 110.257 128.378 110.691 128.709C111.125 129.041 111.794 128.894 112.185 128.382Z" fill="#353642"/>
<path d="M104.088 126.051C104.479 125.539 104.444 124.855 104.01 124.524C103.576 124.193 102.907 124.339 102.517 124.851C102.126 125.363 102.161 126.047 102.595 126.378C103.029 126.71 103.698 126.563 104.088 126.051Z" fill="#353642"/>
<path d="M110.047 136.678C105.132 140.854 102.552 137.134 102.552 137.134" stroke="black" stroke-width="1.53379" stroke-miterlimit="10"/>
<path d="M57.9741 160.682C62.2245 159.922 66.5133 159.326 70.7253 158.549C72.7797 158.171 74.8324 157.805 76.8837 157.45C86.0229 155.894 95.1477 154.685 104.388 154.646C104.834 154.647 105.265 154.485 105.602 154.193C105.938 153.899 106.157 153.495 106.219 153.053L106.389 151.774L107.467 143.798" stroke="black" stroke-width="1.53379" stroke-miterlimit="10"/>
<path d="M122.697 144.437V144.398V144.206" stroke="black" stroke-width="1.53379" stroke-miterlimit="10"/>
<path d="M-32.783 228.019H55.4108H65.3862H150.838H166.848H273.573" stroke="black" stroke-width="1.53379" stroke-miterlimit="10"/>
<path d="M145.942 187.654C145.942 187.654 147.074 198.919 148.759 209.921C149.868 217.159 151.224 224.28 152.64 228" stroke="black" stroke-width="1.53379" stroke-miterlimit="10"/>
<path d="M148.759 209.921L148.982 209.861L149.323 209.767C151.123 209.258 152.94 208.807 154.78 208.428C155.073 208.366 155.366 208.313 155.659 208.258C157.712 207.879 159.793 207.676 161.88 207.65C162.804 207.65 163.689 207.619 164.536 207.574H164.589C168.139 207.372 171.105 206.803 173.584 205.956C177.633 204.578 180.367 202.462 182.176 200.011C182.191 199.997 182.198 199.973 182.215 199.958C183.531 198.132 184.449 196.05 184.91 193.846C184.906 193.836 184.906 193.824 184.91 193.814L184.934 193.699" stroke="black" stroke-width="1.53379" stroke-miterlimit="10"/>
</g>
<defs>
<clipPath id="clip0_281_762">
<rect width="240" height="240" fill="white"/>
</clipPath>
</defs>
</svg>
