<svg width="24" height="24" viewBox="0 0 24 24" fill="none" xmlns="http://www.w3.org/2000/svg">
<g opacity="0.5" clip-path="url(#clip0_271_714)">
<path d="M22 17V21C22 21.2652 21.8946 21.5196 21.7071 21.7071C21.5196 21.8946 21.2652 22 21 22H3C2.73478 22 2.48043 21.8946 2.29289 21.7071C2.10536 21.5196 2 21.2652 2 21V17C2 16.7348 1.89464 16.4804 1.70711 16.2929C1.51957 16.1054 1.26522 16 1 16C0.734784 16 0.48043 16.1054 0.292893 16.2929C0.105357 16.4804 0 16.7348 0 17L0 21C0 21.7956 0.31607 22.5587 0.87868 23.1213C1.44129 23.6839 2.20435 24 3 24H21C21.7956 24 22.5587 23.6839 23.1213 23.1213C23.6839 22.5587 24 21.7956 24 21V17C24 16.7348 23.8946 16.4804 23.7071 16.2929C23.5196 16.1054 23.2652 16 23 16C22.7348 16 22.4804 16.1054 22.2929 16.2929C22.1054 16.4804 22 16.7348 22 17Z" fill="#374957"/>
<path d="M18.707 5.46198L14.121 0.874985C13.5575 0.31428 12.7949 -0.000488281 12 -0.000488281C11.2051 -0.000488281 10.4425 0.31428 9.879 0.874985L5.293 5.46198C5.19749 5.55423 5.12131 5.66458 5.0689 5.78658C5.01649 5.90858 4.9889 6.0398 4.98775 6.17258C4.9866 6.30536 5.0119 6.43704 5.06218 6.55994C5.11246 6.68284 5.18671 6.79449 5.2806 6.88838C5.3745 6.98227 5.48615 7.05653 5.60905 7.10681C5.73194 7.15709 5.86362 7.18239 5.9964 7.18124C6.12918 7.18008 6.2604 7.1525 6.3824 7.10009C6.50441 7.04768 6.61475 6.97149 6.707 6.87598L11 2.58398V18C11 18.2652 11.1054 18.5196 11.2929 18.7071C11.4804 18.8946 11.7348 19 12 19C12.2652 19 12.5196 18.8946 12.7071 18.7071C12.8946 18.5196 13 18.2652 13 18V2.58298L17.293 6.87598C17.3852 6.97149 17.4956 7.04768 17.6176 7.10009C17.7396 7.1525 17.8708 7.18008 18.0036 7.18124C18.1364 7.18239 18.2681 7.15709 18.391 7.10681C18.5138 7.05653 18.6255 6.98227 18.7194 6.88838C18.8133 6.79449 18.8875 6.68284 18.9378 6.55994C18.9881 6.43704 19.0134 6.30536 19.0123 6.17258C19.0111 6.0398 18.9835 5.90858 18.9311 5.78658C18.8787 5.66458 18.8025 5.55423 18.707 5.46198Z" fill="#374957"/>
</g>
<defs>
<clipPath id="clip0_271_714">
<rect width="24" height="24" fill="white"/>
</clipPath>
</defs>
</svg>
